# xmcd CD database file
#
# Track frame offsets:
#	150
#	9977
#	22558
#	30755
#	42701
#	52707
#	64957
#	75754
#	85654
#	93704
#	102072
#	112728
#	125258
#	141272
#
# Disc length: 2015 seconds
#
# Revision: 4
# Processed by: cddbd v1.5.2PL0 Copyright (c) Steve Scherf et al.
# Submitted via: CDex 1.51
#
DISCID=9107dd0e
DTITLE=Johnny Cash - The shadow of ...  [CD 1-3]
DYEAR=2008
DGENRE=Country
TTITLE0=Ballad Of A Teenage Queen 
TTITLE1=Folsom Prison Blues
TTITLE2=Guess Things Happen That Way
TTITLE3=You're The Nearest Thing To Heaven
TTITLE4=Get Rhythm 
TTITLE5=Next In Line
TTITLE6=I Heard That Lonesome Whistle Blow
TTITLE7=Hey Porter
TTITLE8=Wreck Of The Old '97
TTITLE9=Country Boy
TTITLE10=Train Of Love
TTITLE11=Ring Of Fire
TTITLE12=A Boy Named Sue
TTITLE13=If I Were A Carpenter
EXTD=YEAR: 2008
EXTT0=
EXTT1=
EXTT2=
EXTT3=
EXTT4=
EXTT5=
EXTT6=
EXTT7=
EXTT8=
EXTT9=
EXTT10=
EXTT11=
EXTT12=
EXTT13=
PLAYORDER=
